<?xml version="1.0" encoding="utf-8"?>
<!-- Generator: Adobe Illustrator 23.0.2, SVG Export Plug-In . SVG Version: 6.00 Build 0)  -->
<svg version="1.1" id="Слой_1" xmlns="http://www.w3.org/2000/svg" xmlns:xlink="http://www.w3.org/1999/xlink" x="0px" y="0px"
	 viewBox="0 0 500 500" style="enable-background:new 0 0 500 500;" xml:space="preserve">
<style type="text/css">
	.st0{fill:#9B7948;}
</style>
<path class="st0" d="M445.5,386h-391c-11,0-20-9-20-20V148c0-11,9-20,20-20h391c11,0,20,9,20,20v218C465.5,377,456.5,386,445.5,386z
	 M54.5,144c-2.2,0-4,1.8-4,4v218c0,2.2,1.8,4,4,4h391c2.2,0,4-1.8,4-4V148c0-2.2-1.8-4-4-4H54.5z"/>
<rect x="42.5" y="225" class="st0" width="408.5" height="16"/>
<rect x="42.5" y="177" class="st0" width="408.5" height="16"/>
<rect x="80" y="326" class="st0" width="118" height="16"/>
<rect x="80" y="287" class="st0" width="118" height="16"/>
<path class="st0" d="M371.5,348c-20.7,0-37.5-16.1-37.5-36s16.8-36,37.5-36s37.5,16.1,37.5,36S392.2,348,371.5,348z M371.5,292
	c-11.9,0-21.5,9-21.5,20s9.6,20,21.5,20s21.5-9,21.5-20S383.4,292,371.5,292z"/>
</svg>
