<?xml version="1.0" encoding="utf-8"?>
<!-- Generator: Adobe Illustrator 23.0.2, SVG Export Plug-In . SVG Version: 6.00 Build 0)  -->
<svg version="1.1" id="Слой_1" xmlns="http://www.w3.org/2000/svg" xmlns:xlink="http://www.w3.org/1999/xlink" x="0px" y="0px"
	 viewBox="0 0 500 500" style="enable-background:new 0 0 500 500;" xml:space="preserve">
<style type="text/css">
	.st0{fill:#6CA9E0;}
	.st1{fill:#FFFFFF;}
</style>
<path class="st0" d="M415,391H92c-11,0-20-9-20-20V180c0-11,9-20,20-20h323c11,0,20,9,20,20v191C435,382,426,391,415,391z M92,176
	c-2.2,0-4,1.8-4,4v191c0,2.2,1.8,4,4,4h323c2.2,0,4-1.8,4-4V180c0-2.2-1.8-4-4-4H92z"/>
<rect x="192" y="141" class="st1" width="121" height="47"/>
<rect x="245.5" y="388" class="st0" width="16" height="55"/>
<rect x="195" y="436" class="st0" width="115" height="16"/>
<path class="st0" d="M282,265h-58c-11,0-20-9-20-20V75c0-11,9-20,20-20h58c11,0,20,9,20,20v170C302,256,293,265,282,265z M224,71
	c-2.2,0-4,1.8-4,4v170c0,2.2,1.8,4,4,4h58c2.2,0,4-1.8,4-4V75c0-2.2-1.8-4-4-4H224z"/>
<rect x="210" y="98" class="st0" width="82" height="16"/>
<rect x="245.2" y="106" transform="matrix(1 -3.472201e-03 3.472201e-03 1 -0.6165 0.8804)" class="st0" width="16" height="144"/>
<path class="st0" d="M254.7,332.4l-49-84.2l93.7,1.8L254.7,332.4z M233.9,264.8l20.4,35l18.6-34.2L233.9,264.8z"/>
</svg>
