<?xml version="1.0" encoding="utf-8"?>
<!-- Generator: Adobe Illustrator 23.0.2, SVG Export Plug-In . SVG Version: 6.00 Build 0)  -->
<svg version="1.1" id="Слой_1" xmlns="http://www.w3.org/2000/svg" xmlns:xlink="http://www.w3.org/1999/xlink" x="0px" y="0px"
	 viewBox="0 0 500 500" style="enable-background:new 0 0 500 500;" xml:space="preserve">
<style type="text/css">
	.st0{fill:#6CA9E0;}
</style>
<path class="st0" d="M254,431.2c-104.2,0-189-81-189-180.5c0-99.5,84.8-180.5,189-180.5s189,81,189,180.5
	C443,350.2,358.2,431.2,254,431.2z M254,86.2c-95.4,0-173,73.8-173,164.5c0,90.7,77.6,164.5,173,164.5s173-73.8,173-164.5
	C427,160,349.4,86.2,254,86.2z"/>
<path class="st0" d="M254,360.4c-62.3,0-113-48.5-113-108.2c0-59.7,50.7-108.2,113-108.2s113,48.5,113,108.2
	C367,311.9,316.3,360.4,254,360.4z M254,160c-53.5,0-97,41.4-97,92.2c0,50.8,43.5,92.2,97,92.2c53.5,0,97-41.4,97-92.2
	C351,201.4,307.5,160,254,160z"/>
<rect x="246" y="82" class="st0" width="16" height="66.5"/>
<rect x="86.9" y="242.7" transform="matrix(0.9999 -1.721147e-02 1.721147e-02 0.9999 -4.3008 1.7824)" class="st0" width="29" height="16"/>
<rect x="73" y="244" transform="matrix(0.9999 -1.574704e-02 1.574704e-02 0.9999 -3.9545 1.7792)" class="st0" width="76" height="16"/>
<rect x="366.1" y="243.1" transform="matrix(0.9999 -1.550296e-02 1.550296e-02 0.9999 -3.8449 6.2066)" class="st0" width="64.6" height="16"/>
<rect x="122.1" y="345.9" transform="matrix(0.666 -0.746 0.746 0.666 -212.1389 234.0122)" class="st0" width="66.2" height="16"/>
<rect x="319.2" y="149.7" transform="matrix(0.665 -0.7468 0.7468 0.665 1.0685 317.6825)" class="st0" width="70.8" height="16"/>
<rect x="143.9" y="118.2" transform="matrix(0.6628 -0.7488 0.7488 0.6628 -64.3189 165.7676)" class="st0" width="16" height="72.1"/>
<rect x="342.9" y="315.4" transform="matrix(0.7681 -0.6403 0.6403 0.7681 -143.8619 306.2572)" class="st0" width="16" height="72.8"/>
<rect x="242" y="356.7" class="st0" width="16" height="66.4"/>
<path class="st0" d="M140.7,335.7C95,303.4,88.8,233.4,126.9,179.7l13.1,9.2c-32.9,46.5-28.5,106.5,10,133.7L140.7,335.7z"/>
<rect x="137.1" y="166.4" transform="matrix(0.6762 -0.7368 0.7368 0.6762 -82.4519 161.1198)" class="st0" width="9.9" height="16"/>
<path class="st0" d="M140.7,335.7C95,303.4,88.8,233.4,126.9,179.7l13.1,9.2c-32.9,46.5-28.5,106.5,10,133.7L140.7,335.7z"/>
<path class="st0" d="M371.5,324.3l-11.1-11.6c15.9-15.2,24.9-35.8,25.2-58c0.3-22.2-8.1-43.5-23.7-59.7l11.6-11.1
	c18.5,19.3,28.5,44.5,28.1,71C401.3,281.4,390.6,306.1,371.5,324.3z"/>
<rect x="353.6" y="319.2" transform="matrix(0.6866 -0.727 0.727 0.6866 -125.5013 363.2484)" class="st0" width="9.9" height="16"/>
</svg>
