<?xml version="1.0" encoding="UTF-8"?>
<svg width="326px" height="664px" viewBox="0 0 326 664" version="1.1" xmlns="http://www.w3.org/2000/svg" xmlns:xlink="http://www.w3.org/1999/xlink">
    <!-- Generator: Sketch 52.6 (67491) - http://www.bohemiancoding.com/sketch -->
    <title>key-silhouette-security-tool-interface-symbol-of-password</title>
    <desc>Created with Sketch.</desc>
    <g id="Page-1" stroke="none" stroke-width="1" fill="none" fill-rule="evenodd">
        <g id="key-silhouette-security-tool-interface-symbol-of-password" transform="translate(163.500000, 298.500000) rotate(-45.000000) translate(-163.500000, -298.500000) translate(-95.000000, 40.000000)" fill="#000000" fill-rule="nonzero">
            <path d="M353.812,0 C263.925,0 191.25,72.675 191.25,162.562 C191.25,181.687 195.075,200.812 200.812,219.937 L0,420.75 L0,516.375 L95.625,516.375 L95.625,459 L153,459 L153,401.625 L210.375,401.625 L296.437,315.563 C313.65,321.3 332.775,325.125 353.812,325.125 C443.7,325.125 516.374,252.45 516.374,162.563 C516.374,72.676 443.7,0 353.812,0 Z M401.625,172.125 C369.112,172.125 344.25,147.263 344.25,114.75 C344.25,82.237 369.112,57.375 401.625,57.375 C434.138,57.375 459,82.237 459,114.75 C459,147.263 434.138,172.125 401.625,172.125 Z" id="Shape"></path>
        </g>
    </g>
</svg>