<?xml version="1.0" encoding="utf-8"?>
<!-- Generator: Adobe Illustrator 23.0.2, SVG Export Plug-In . SVG Version: 6.00 Build 0)  -->
<svg version="1.1" id="Слой_1" xmlns="http://www.w3.org/2000/svg" xmlns:xlink="http://www.w3.org/1999/xlink" x="0px" y="0px"
	 viewBox="0 0 500 500" style="enable-background:new 0 0 500 500;" xml:space="preserve">
<style type="text/css">
	.st0{fill:#9B7948;}
</style>
<path class="st0" d="M229.5,135.9h-16c0-19.9,18.4-36,41-36v16C240.7,115.9,229.5,124.9,229.5,135.9z"/>
<path class="st0" d="M300.5,135.9h-16c0-10.8-14.2-20-31-20v-16C279.9,99.9,300.5,115.7,300.5,135.9z"/>
<rect x="213.5" y="135.9" class="st0" width="16" height="48"/>
<rect x="284.5" y="135.9" class="st0" width="16" height="48"/>
<path class="st0" d="M233.5,211.9c-11.4,0-20-12-20-28h16c0,7.3,3,11.6,4.2,12c0,0-0.1,0-0.2,0V211.9z"/>
<path class="st0" d="M279,211.9v-16c1.9,0,5.5-4.6,5.5-12h16C300.5,199.6,291.1,211.9,279,211.9z"/>
<rect x="225.5" y="205.9" class="st0" width="8" height="21"/>
<rect x="279" y="204.9" class="st0" width="8" height="21"/>
<path class="st0" d="M155.3,287.8l-16-0.2c0.3-19.2,10.6-36.9,29-49.9c17.7-12.4,40.9-19.1,65.5-18.8l-0.2,16
	C190.9,234.3,155.7,258.1,155.3,287.8z"/>
<path class="st0" d="M370,287.8l-16-0.2c0.4-29.7-33.3-54.5-75.1-55.1l0.2-16c24.1,0.4,46.8,7.7,63.8,20.6
	C360.7,250.6,370.3,268.6,370,287.8z"/>
<rect x="139.3" y="287.7" class="st0" width="16" height="16.2"/>
<rect x="354" y="287.5" class="st0" width="16" height="16.3"/>
<path class="st0" d="M291,340.9h-71.5v-58H291V340.9z M235.5,324.9H275v-26h-39.5V324.9z"/>
<path class="st0" d="M241.5,290.9h-16c0-23.3,12.3-41.6,28-41.6v16C248.6,265.3,241.5,275.3,241.5,290.9z"/>
<path class="st0" d="M283.3,290.9h-16c0-13.6-7-25.6-15-25.6v-16C269.7,249.3,283.3,267.6,283.3,290.9z"/>
</svg>
