<?xml version="1.0" encoding="utf-8"?>
<!-- Generator: Adobe Illustrator 23.0.2, SVG Export Plug-In . SVG Version: 6.00 Build 0)  -->
<svg version="1.1" id="Слой_1" xmlns="http://www.w3.org/2000/svg" xmlns:xlink="http://www.w3.org/1999/xlink" x="0px" y="0px"
	 viewBox="0 0 500 500" style="enable-background:new 0 0 500 500;" xml:space="preserve">
<style type="text/css">
	.st0{fill:#3EB5F1;}
</style>
<g id="Слой_3">
	<g>
		<path class="st0" d="M238.1,291.4c-29.2,0-56.5-16.9-76.6-47.5c-19.5-29.6-30.3-68.9-30.3-110.6h16c0,78.4,40.8,142.1,90.9,142.1
			V291.4z"/>
		<path class="st0" d="M238.1,291.4v-16c22.4,0,43.7-14.3,60-40.2c17-27.1,26.4-63.3,26.4-101.9h16c0,41.6-10.2,80.8-28.9,110.4
			C292.3,274.5,266.2,291.4,238.1,291.4z"/>
	</g>
	<rect x="120.1" y="125.3" class="st0" width="231.4" height="16"/>
	<rect x="188" y="65.1" class="st0" width="16" height="68.2"/>
	<rect x="270" y="65.1" class="st0" width="16" height="68.2"/>
	<path class="st0" d="M265,326.4h-52.3c-9.8,0-17.7-7.9-17.7-17.7V293c0-9.8,7.9-17.7,17.7-17.7H265c9.8,0,17.7,7.9,17.7,17.7v15.7
		C282.7,318.5,274.8,326.4,265,326.4z M212.7,291.3c-0.9,0-1.7,0.8-1.7,1.7v15.7c0,0.9,0.8,1.7,1.7,1.7H265c0.9,0,1.7-0.8,1.7-1.7
		V293c0-0.9-0.8-1.7-1.7-1.7H212.7z"/>
	<path class="st0" d="M362.2,410.1c-34.3,0-66.7-9-91.1-25.3c-25.4-17-39.4-39.9-39.4-64.5h16c0,19.1,11.5,37.3,32.3,51.2
		c21.8,14.6,51,22.6,82.2,22.6V410.1z"/>
	<path class="st0" d="M416.6,434.6l-16-0.2c0.1-13.1-17.9-24.4-39.4-24.7l0.2-16C392.6,394.2,416.9,412.1,416.6,434.6z"/>
	<path class="st0" d="M361.9,475.5c-0.4,0-0.7,0-1.1,0l0.2-16c12.9,0.2,25.2-4.1,32.8-11.5c3.3-3.2,7.1-8.4,7.2-15.4l16,0.2
		c-0.1,9.9-4.3,19.1-12,26.7C394.5,469.7,378.8,475.5,361.9,475.5z"/>
	<rect x="133.5" y="459.5" class="st0" width="234.4" height="16"/>
</g>
</svg>
