<?xml version="1.0" encoding="utf-8"?>
<!-- Generator: Adobe Illustrator 19.0.1, SVG Export Plug-In . SVG Version: 6.00 Build 0)  -->
<svg version="1.1" id="Слой_1" xmlns="http://www.w3.org/2000/svg" xmlns:xlink="http://www.w3.org/1999/xlink" x="0px" y="0px"
	 viewBox="0 0 500 500" style="enable-background:new 0 0 500 500;" xml:space="preserve">
<style type="text/css">
	.st0{fill:#5797D3;}
	.st1{fill:#4798D7;}
	.st2{fill:#338ED8;}
</style>
<g>
	<path class="st0" d="M255.7,38c0,0,1.3,0,3.7,0.1c1.2,0,2.8,0.1,4.6,0.2c0.9,0,1.9,0,3,0.1s2.2,0.2,3.4,0.3
		c1.2,0.1,2.5,0.2,3.8,0.3s2.8,0.2,4.2,0.4c2.9,0.4,6.1,0.8,9.6,1.3c3.4,0.6,7.2,1.2,11.1,2c2,0.4,4,0.9,6,1.4
		c1,0.2,2.1,0.5,3.2,0.7c1.1,0.3,2.1,0.6,3.2,0.9c2.2,0.6,4.4,1.2,6.7,1.8c2.3,0.7,4.6,1.5,6.9,2.3c1.2,0.4,2.4,0.7,3.6,1.2
		c1.2,0.4,2.4,0.9,3.6,1.4c2.4,0.9,5,1.8,7.4,2.9c10.1,4.1,20.6,9.4,31.4,15.9c10.8,6.6,21.7,14.4,32.4,23.9
		c10.6,9.4,21,20.4,30.4,33.1c9.3,12.7,17.7,27,24.4,42.8c6.8,15.8,11.5,33.1,14.2,51.2c0.4,2.3,0.6,4.6,0.8,6.9
		c0.2,2.3,0.5,4.6,0.7,6.9c0.1,2.3,0.2,4.7,0.3,7c0.1,1.2,0.1,2.3,0.2,3.5c0-0.1,0,0.6,0,0.7v0.4v0.8v1.7c0,2.3,0,4.5,0,6.8v0.9v0.9
		l-0.1,1.8c-0.1,1.2-0.1,2.4-0.2,3.7c-0.2,4.9-0.8,9.7-1.3,14.5c-1.3,9.6-3,19.3-5.7,28.8l-1,3.6c-0.3,1.2-0.7,2.4-1.1,3.6
		c-0.8,2.4-1.5,4.8-2.3,7.1c-0.9,2.3-1.8,4.7-2.6,7.1c-0.5,1.2-0.9,2.4-1.4,3.5l-1.5,3.5c-7.9,18.6-18.7,36.5-31.9,52.7
		c-1.7,2-3.4,4-5.1,6s-3.6,3.9-5.3,5.8c-0.9,1-1.8,2-2.7,2.9l-2.8,2.8l-2.8,2.8l-1.4,1.4l-1.5,1.3c-2,1.8-4,3.5-6,5.3
		c-2,1.7-4.1,3.4-6.2,5c-1,0.8-2.1,1.7-3.1,2.5l-3.2,2.4l-3.2,2.4l-1.6,1.2l-1.7,1.1c-2.2,1.5-4.5,2.9-6.7,4.4
		c-2.3,1.4-4.6,2.8-6.9,4.1c-1.2,0.7-2.3,1.4-3.5,2l-3.6,1.9l-3.6,1.9l-1.8,0.9l-1.8,0.9c-2.5,1.1-4.9,2.3-7.4,3.4s-5,2.1-7.5,3.1
		c-1.3,0.5-2.5,1.1-3.8,1.5l-3.8,1.4l-3.9,1.4l-1.9,0.7l-2,0.6l-7.8,2.3c-2.6,0.7-5.3,1.3-7.9,2c-1.3,0.3-2.7,0.7-4,1l-4,0.8l-4,0.8
		c-1.3,0.3-2.7,0.5-4,0.7l-8.1,1.2c-1.4,0.2-2.7,0.3-4.1,0.5l-4.1,0.4l-4.1,0.4c-1.4,0.1-2.7,0.1-4.1,0.2l-4.1,0.2l-2.1,0.1h-1h-0.5
		c-0.4,0,0.1,0-0.9,0h-7.7h-1.9c-0.6,0-1.3,0-2-0.1l-4.3-0.2l-4.3-0.2c-1.4-0.1-2.9-0.2-4.2-0.3l-8.2-0.9c-1.4-0.1-2.7-0.4-4.1-0.6
		l-4.1-0.6l-4.1-0.7c-1.4-0.3-2.7-0.6-4-0.8c-2.7-0.6-5.4-1.1-8.1-1.7l-8-2.1l-2-0.5l-2-0.6l-3.9-1.2l-3.9-1.2
		c-1.3-0.4-2.6-0.9-3.9-1.4c-2.6-1-5.2-1.9-7.7-2.9c-2.5-1.1-5.1-2.1-7.6-3.2l-1.9-0.8l-1.9-0.9l-3.7-1.8l-3.7-1.8
		c-1.2-0.6-2.4-1.3-3.6-1.9c-2.4-1.3-4.8-2.6-7.2-3.9c-2.4-1.4-4.7-2.8-7-4.2l-1.8-1.1l-1.7-1.1l-3.4-2.3l-3.4-2.3
		c-1.1-0.8-2.2-1.6-3.3-2.4c-2.2-1.6-4.4-3.2-6.6-4.9c-2.1-1.7-4.2-3.5-6.3-5.2l-1.6-1.3l-1.5-1.4l-3-2.7l-3-2.7
		c-1-0.9-1.9-1.9-2.9-2.8c-1.9-1.9-3.8-3.8-5.7-5.8c-1.8-2-3.6-4-5.5-6c-14.3-16.2-26-34.4-34.7-53.6l-1.6-3.6
		c-0.5-1.2-1-2.4-1.5-3.7c-1-2.4-1.9-4.9-2.9-7.3c-0.8-2.5-1.7-4.9-2.5-7.4c-0.4-1.2-0.9-2.5-1.2-3.7l-1.1-3.7
		c-3-9.9-4.9-20-6.3-30.1c-0.6-5-1.3-10-1.5-15c-0.1-2.5-0.3-5-0.4-7.5c0-2.5,0-5-0.1-7.4V249v-0.9v-0.5c0,0,0-1.3,0-0.9
		c0.1-1.1,0.1-2.2,0.2-3.4c0.1-2.2,0.2-4.5,0.3-6.7c0.2-2.4,0.5-5,0.7-7.5c0.3-2.5,0.5-5,0.9-7.4s0.8-4.7,1.1-7.1
		c0.2-1.2,0.4-2.3,0.7-3.5c0.2-1.2,0.5-2.3,0.7-3.5c0.5-2.3,1-4.6,1.6-6.9c0.6-2.3,1.2-4.5,1.9-6.8c0.3-1.1,0.6-2.2,1-3.3
		s0.7-2.2,1.1-3.3c0.7-2.2,1.5-4.4,2.2-6.5c0.8-2.1,1.6-4.3,2.5-6.4c0.9-2.1,1.6-4.2,2.6-6.2c1.9-4.1,3.7-8.1,5.8-12
		c1-1.9,2.1-3.9,3.1-5.8c1.1-1.9,2.2-3.7,3.3-5.6c2.1-3.7,4.6-7.2,6.9-10.7c1.1-1.8,2.4-3.4,3.7-5.1c1.2-1.7,2.5-3.3,3.7-4.9
		c9.6-13,20.7-24.1,32-33.4c11.3-9.4,22.9-17,34.2-23.2s22.3-11.2,32.7-14.9c2.6-1.1,5.2-1.8,7.7-2.7c1.3-0.4,2.5-0.8,3.7-1.2
		s2.5-0.7,3.7-1.1c2.4-0.7,4.8-1.4,7.1-2c2.3-0.5,4.6-1.1,6.8-1.6c17.7-4.1,32-5.2,41.6-5.7c1.2-0.1,2.3-0.1,3.4-0.2
		c1.1-0.1,2.1,0,3-0.1c1.8,0,3.4,0,4.6,0C254.3,38,255.6,38,255.7,38L255.7,38z M255.6,42c0,0-1.3,0.1-3.7,0.2
		c-1.2,0.1-2.7,0.1-4.5,0.2c-0.9,0.1-1.9,0.1-2.9,0.2c-1,0.1-2.1,0.2-3.3,0.3c-9.4,0.8-23.3,2.7-40,8.1c-2.1,0.7-4.2,1.4-6.4,2.1
		c-2.1,0.8-4.3,1.7-6.6,2.6c-1.1,0.5-2.3,0.9-3.4,1.4c-1.1,0.5-2.3,1-3.4,1.6c-2.3,1.1-4.7,2-7,3.3c-9.4,4.7-19.1,10.7-28.7,17.9
		c-9.6,7.3-19,15.9-27.8,25.9s-17,21.2-24.1,33.7c-0.9,1.6-1.7,3.2-2.6,4.8s-1.8,3.2-2.5,4.8c-1.5,3.3-3.3,6.5-4.6,10
		c-0.7,1.7-1.5,3.4-2.2,5.1c-0.6,1.7-1.3,3.5-2,5.2c-1.4,3.5-2.5,7.1-3.7,10.7c-0.6,1.8-1.1,3.6-1.6,5.5c-0.5,1.8-1,3.7-1.5,5.5
		c-0.4,1.9-0.9,3.7-1.3,5.6c-0.2,0.9-0.4,1.9-0.7,2.8c-0.2,0.9-0.3,1.9-0.5,2.9c-0.3,1.9-0.7,3.8-1,5.7c-0.4,1.9-0.5,3.9-0.8,5.8
		c-0.1,1-0.3,1.9-0.4,2.9s-0.3,2-0.3,2.9c-0.2,2-0.3,3.9-0.5,5.9s-0.3,3.9-0.4,5.8c-0.1,1.9-0.2,3.8-0.3,5.7c0,2.2,0,4.5,0,6.7
		c0,1.1,0,2.2,0,3.4c0,0.6,0-0.3,0-0.1v0.4v0.8l0.1,1.5c0.1,2,0.2,4.1,0.3,6.1c0.1,2,0.4,4.1,0.6,6.1c0.3,4.1,1,8.2,1.6,12.3
		c1.4,8.2,3.1,16.4,5.7,24.4l0.9,3c0.3,1,0.7,2,1,3c0.7,2,1.4,4,2.1,6c0.8,2,1.6,4,2.4,6c0.4,1,0.8,2,1.2,3l1.3,2.9
		c3.4,7.9,7.6,15.5,12.1,23c1.2,1.9,2.3,3.7,3.5,5.6c1.3,1.8,2.5,3.6,3.8,5.4c1.2,1.8,2.6,3.6,3.9,5.3c1.4,1.7,2.6,3.6,4.1,5.2
		c1.4,1.7,2.9,3.4,4.3,5.1c1.5,1.7,3,3.3,4.5,5c0.8,0.8,1.5,1.7,2.3,2.5l2.4,2.4l2.4,2.4l1.2,1.2l1.3,1.1c1.7,1.5,3.3,3,5,4.6
		c1.7,1.5,3.5,2.9,5.2,4.3c0.9,0.7,1.7,1.5,2.7,2.1l2.7,2l2.7,2l1.4,1l1.4,1c1.9,1.3,3.8,2.6,5.7,3.9c1.9,1.2,3.9,2.4,5.9,3.6
		c1,0.6,1.9,1.2,3,1.8l3,1.6l3,1.7l1.5,0.8l1.6,0.8l6.3,3c2.1,0.9,4.3,1.8,6.4,2.7c1.1,0.4,2.1,0.9,3.2,1.3l3.3,1.2l3.3,1.2l1.6,0.6
		l1.7,0.5c8.8,3,18,5,27.3,6.7l7,1c1.2,0.2,2.3,0.3,3.4,0.4l3.4,0.3l3.4,0.3c0.5,0.1,1.2,0.1,1.8,0.1l1.9,0.1l7.6,0.3l6.7-0.1
		c1.2,0,2.4,0,3.5-0.1l3.5-0.2l3.5-0.2c1.2-0.1,2.4-0.1,3.5-0.3l7-0.8c1.2-0.1,2.3-0.3,3.5-0.5l3.5-0.6l3.5-0.6
		c1.2-0.2,2.3-0.5,3.5-0.7c2.3-0.5,4.6-0.9,6.9-1.5l6.8-1.8l1.7-0.4l1.7-0.5l3.4-1.1l3.4-1.1c1.1-0.4,2.2-0.8,3.3-1.2
		c2.2-0.8,4.4-1.6,6.6-2.5l6.5-2.8l1.6-0.7l1.6-0.8l3.2-1.5l3.2-1.5c1.1-0.5,2.1-1.1,3.1-1.7c2.1-1.1,4.1-2.2,6.2-3.4
		c2-1.2,4-2.4,6-3.7l1.5-0.9l1.5-1l2.9-2l2.9-2c1-0.7,1.9-1.4,2.8-2.1c1.9-1.4,3.8-2.8,5.6-4.2c1.8-1.5,3.6-3,5.4-4.5l1.3-1.1
		l1.3-1.2l2.6-2.4l2.6-2.3c0.9-0.8,1.7-1.6,2.5-2.4c1.6-1.6,3.3-3.3,4.9-4.9c1.6-1.7,3.1-3.4,4.7-5.1c12.2-13.8,22.5-29.2,30.2-45.6
		l1.5-3c0.5-1,0.9-2.1,1.3-3.1c0.9-2.1,1.7-4.1,2.6-6.2c0.8-2.1,1.5-4.2,2.3-6.3c0.4-1.1,0.8-2.1,1.1-3.2l1-3.2
		c2.8-8.4,4.6-17.1,6.2-25.7c0.6-4.3,1.4-8.7,1.7-12.8l0.3-3.1l0.2-1.6l0.1-0.8v-0.8c0.1-2.3,0.2-4.5,0.3-6.8l0.1-3.1v-3.2
		c0-2.1,0-4.3,0-6.4c-0.1-2.1-0.2-4.2-0.3-6.3c-0.1-2.1-0.2-4.2-0.4-6.3c-0.2-2.1-0.4-4.2-0.6-6.2c-0.1-1-0.2-2.1-0.4-3.1
		c-0.2-1-0.3-2-0.5-3.1c-0.3-2-0.6-4.1-1-6.1s-0.8-4-1.2-6c-0.2-1-0.4-2-0.6-3s-0.5-2-0.7-3c-0.5-2-1-3.9-1.5-5.9
		c-0.6-1.9-1.2-3.9-1.7-5.8c-0.6-1.9-1.1-3.8-1.8-5.7c-5.1-15-11.8-29.1-19.6-41.7c-7.9-12.7-16.8-23.9-26.3-33.8
		c-9.5-9.8-19.6-18.2-29.7-25.2s-20.2-12.6-30-16.9c-2.4-1.2-4.9-2.1-7.2-3c-1.2-0.5-2.4-1-3.5-1.4c-1.2-0.5-2.3-0.8-3.5-1.3
		c-2.3-0.8-4.6-1.6-6.8-2.3c-2.2-0.6-4.4-1.3-6.6-1.9c-1.1-0.3-2.1-0.6-3.2-0.9c-1-0.2-2.1-0.5-3.1-0.7c-2-0.5-4-0.9-5.9-1.4
		c-3.9-0.8-7.5-1.3-10.9-1.9c-3.4-0.4-6.6-0.8-9.5-1.2c-1.4-0.2-2.8-0.2-4.1-0.3c-1.3-0.1-2.6-0.2-3.7-0.2c-1.2-0.1-2.3-0.1-3.3-0.2
		c-1-0.1-2,0-2.9-0.1c-1.8,0-3.4,0-4.6-0.1C256.9,42,255.6,42,255.6,42L255.6,42z"/>
</g>
<polygon class="st1" points="239.3,68.7 240.6,68.7 240.6,68.7 "/>
<path class="st2" d="M390.4,326.4l-1.3-4.1c-3.2-9.4-13.8-19.2-23.6-21.9l-36-9.6c-9.8-2.6-23.7,0.9-30.8,7.9l-13,12.8
	c-47.4-12.6-84.5-49-97.2-95.5l13-12.8c7.1-7,10.7-20.6,8.1-30.3l-9.8-35.3c-2.7-9.6-12.7-20-22.3-23.2l-4.1-1.3
	c-9.6-3.2-23.3,0-30.4,7.1l-19.6,19.1c-3.5,3.4-5.7,13.1-5.7,13.2c-0.7,60.8,23.6,119.3,67.4,162.2c43.7,42.9,103,66.6,164.8,66.1
	c0.3,0,10.6-2.1,14-5.5l19.5-19.1C390.4,349.3,393.7,335.9,390.4,326.4z"/>
</svg>
