<?xml version="1.0" encoding="utf-8"?>
<!-- Generator: Adobe Illustrator 23.0.2, SVG Export Plug-In . SVG Version: 6.00 Build 0)  -->
<svg version="1.1" id="Слой_1" xmlns="http://www.w3.org/2000/svg" xmlns:xlink="http://www.w3.org/1999/xlink" x="0px" y="0px"
	 viewBox="0 0 500 500" style="enable-background:new 0 0 500 500;" xml:space="preserve">
<style type="text/css">
	.st0{fill:#6CA9E0;}
</style>
<path class="st0" d="M415,423.5H93c-11,0-20-9-20-20v-211c0-11,9-20,20-20h322c11,0,20,9,20,20v211C435,414.5,426,423.5,415,423.5z
	 M93,188.5c-2.2,0-4,1.8-4,4v211c0,2.2,1.8,4,4,4h322c2.2,0,4-1.8,4-4v-211c0-2.2-1.8-4-4-4H93z"/>
<path class="st0" d="M315,386.5H122c-11,0-20-9-20-20v-140c0-11,9-20,20-20h193c11,0,20,9,20,20v140C335,377.5,326,386.5,315,386.5z
	 M122,222.5c-2.2,0-4,1.8-4,4v140c0,2.2,1.8,4,4,4h193c2.2,0,4-1.8,4-4v-140c0-2.2-1.8-4-4-4H122z"/>
<circle class="st0" cx="376.9" cy="264.6" r="15"/>
<circle class="st0" cx="376.9" cy="325.6" r="15"/>
<rect x="214" y="103.2" transform="matrix(0.7071 -0.7071 0.7071 0.7071 -39.983 200.4724)" class="st0" width="16" height="90.5"/>
<rect x="232.7" y="124.5" transform="matrix(0.6715 -0.741 0.741 0.6715 -0.4585 263.9656)" class="st0" width="129.6" height="16"/>
</svg>
