<?xml version="1.0" encoding="utf-8"?>
<!-- Generator: Adobe Illustrator 19.0.1, SVG Export Plug-In . SVG Version: 6.00 Build 0)  -->
<svg version="1.1" id="Слой_1" xmlns="http://www.w3.org/2000/svg" xmlns:xlink="http://www.w3.org/1999/xlink" x="0px" y="0px"
	 viewBox="0 0 500 500" style="enable-background:new 0 0 500 500;" xml:space="preserve">
<style type="text/css">
	.st0{fill:none;stroke:#9B7948;stroke-width:16;stroke-miterlimit:10;}
	.st1{fill:#FFFFFF;}
</style>
<path class="st0" d="M415,383H92c-6.6,0-12-5.4-12-12V180c0-6.6,5.4-12,12-12h323c6.6,0,12,5.4,12,12v191
	C427,377.6,421.6,383,415,383z"/>
<rect x="192" y="141" class="st1" width="121" height="47"/>
<line class="st0" x1="253.5" y1="388" x2="253.5" y2="443"/>
<line class="st0" x1="195" y1="444" x2="310" y2="444"/>
<path class="st0" d="M282,257h-58c-6.6,0-12-5.4-12-12V75c0-6.6,5.4-12,12-12h58c6.6,0,12,5.4,12,12v170
	C294,251.6,288.6,257,282,257z"/>
<line class="st0" x1="210" y1="106" x2="292" y2="106"/>
<line class="st0" x1="253" y1="106" x2="253.5" y2="250"/>
<polygon class="st0" points="219.8,256.5 286.1,257.8 254.5,316.1 "/>
</svg>
