<?xml version="1.0" encoding="utf-8"?>
<!-- Generator: Adobe Illustrator 19.0.1, SVG Export Plug-In . SVG Version: 6.00 Build 0)  -->
<svg version="1.1" id="Слой_1" xmlns="http://www.w3.org/2000/svg" xmlns:xlink="http://www.w3.org/1999/xlink" x="0px" y="0px"
	 viewBox="0 0 500 500" style="enable-background:new 0 0 500 500;" xml:space="preserve">
<style type="text/css">
	.st0{fill:none;stroke:#6CA9E0;stroke-width:16;stroke-miterlimit:10;}
</style>
<ellipse class="st0" cx="254" cy="250.7" rx="181" ry="172.5"/>
<ellipse class="st0" cx="254" cy="252.2" rx="105" ry="100.2"/>
<line class="st0" x1="254" y1="82" x2="254" y2="148.5"/>
<line class="st0" x1="86.9" y1="251" x2="115.9" y2="250.5"/>
<line class="st0" x1="73" y1="252.6" x2="149" y2="251.4"/>
<line class="st0" x1="366.1" y1="251.6" x2="430.7" y2="250.6"/>
<line class="st0" x1="177.3" y1="329.2" x2="133.2" y2="378.6"/>
<line class="st0" x1="378.2" y1="131.2" x2="331.1" y2="184.1"/>
<line class="st0" x1="124.9" y1="130.4" x2="178.9" y2="178.2"/>
<line class="st0" x1="327.6" y1="323.8" x2="374.2" y2="379.7"/>
<line class="st0" x1="250" y1="356.7" x2="250" y2="423.1"/>
<path class="st0" d="M145.3,329.2c-42.1-29.8-47.5-94.6-11.9-144.9"/>
<line class="st0" x1="138.7" y1="178" x2="145.4" y2="170.7"/>
<path class="st0" d="M145.3,329.2c-42.1-29.8-47.5-94.6-11.9-144.9"/>
<path class="st0" d="M367.7,189.4c35.2,36.8,34.5,94.5-1.7,129.1"/>
<line class="st0" x1="355.2" y1="330.8" x2="362" y2="323.6"/>
</svg>
