<?xml version="1.0" encoding="utf-8"?>
<!-- Generator: Adobe Illustrator 23.0.2, SVG Export Plug-In . SVG Version: 6.00 Build 0)  -->
<svg version="1.1" id="Слой_1" xmlns="http://www.w3.org/2000/svg" xmlns:xlink="http://www.w3.org/1999/xlink" x="0px" y="0px"
	 viewBox="0 0 500 500" style="enable-background:new 0 0 500 500;" xml:space="preserve">
<style type="text/css">
	.st0{fill:none;stroke:#9B7948;stroke-width:16;stroke-miterlimit:10;}
	.st1{fill:none;stroke:#9B7948;stroke-width:8;stroke-miterlimit:10;}
</style>
<path class="st0" d="M202.2,134.3c0-21.2,20.3-38.3,45.2-38.3"/>
<path class="st0" d="M299.4,134.3c0-21.2-23.8-38.3-53.4-38.3"/>
<line class="st0" x1="202.2" y1="134.3" x2="202.2" y2="200"/>
<line class="st0" x1="299.4" y1="134.3" x2="299.4" y2="200"/>
<path class="st0" d="M202.2,200c0,15.2,7.4,27.4,16.4,27.4"/>
<path class="st0" d="M299.4,200c0,15.2-8.2,27.4-18.5,27.4"/>
<line class="st1" x1="213.2" y1="230.1" x2="213.2" y2="258.9"/>
<line class="st1" x1="286.4" y1="228.8" x2="286.4" y2="257.5"/>
<path class="st0" d="M100.6,342.2c0.7-47,53.5-84.1,118.3-83.3"/>
<path class="st0" d="M394.6,342.2c0.7-47-50.1-85.6-113.7-86.5"/>
<line class="st0" x1="103.8" y1="337.6" x2="103.8" y2="359.8"/>
<line class="st0" x1="394.6" y1="341.9" x2="394.6" y2="364.2"/>
<rect x="210.4" y="346.5" class="st0" width="76" height="57.5"/>
<path class="st0" d="M218.6,346.5c0-25.5,12.2-46,27.4-46"/>
<path class="st0" d="M275.9,346.5c0-25.5-14.1-46-31.5-46"/>
</svg>
