<?xml version="1.0" encoding="utf-8"?>
<!-- Generator: Adobe Illustrator 19.0.1, SVG Export Plug-In . SVG Version: 6.00 Build 0)  -->
<svg version="1.1" id="Слой_1" xmlns="http://www.w3.org/2000/svg" xmlns:xlink="http://www.w3.org/1999/xlink" x="0px" y="0px"
	 viewBox="0 0 500 500" style="enable-background:new 0 0 500 500;" xml:space="preserve">
<style type="text/css">
	.st0{fill:none;stroke:#6CA9E0;stroke-width:16;stroke-miterlimit:10;}
	.st1{fill:none;stroke:#6CA9E0;stroke-width:12;stroke-miterlimit:10;}
	.st2{fill:none;stroke:#6EA4D5;stroke-width:7;stroke-miterlimit:10;}
	.st3{fill:none;stroke:#6EA4D5;stroke-width:16;stroke-miterlimit:10;}
</style>
<path class="st0" d="M349,489H147c-6.6,0-12-5.4-12-12V112c0-6.6,5.4-12,12-12h202c6.6,0,12,5.4,12,12v365
	C361,483.6,355.6,489,349,489z"/>
<line class="st0" x1="135" y1="141" x2="361" y2="141"/>
<line class="st0" x1="194" y1="429.5" x2="358" y2="430.5"/>
<line class="st0" x1="139" y1="429.4" x2="183" y2="429.6"/>
<circle class="st1" cx="248" cy="459.7" r="12.7"/>
<line class="st2" x1="235.3" y1="120" x2="275.3" y2="120"/>
<line class="st2" x1="221.3" y1="120" x2="231.3" y2="120"/>
<path class="st3" d="M351,77.9c11.3-4.4,24.8,3.1,30.2,16.8"/>
<path class="st3" d="M341.8,52c23.3-9.3,51.1,5.5,62.2,33.2"/>
<path class="st3" d="M331.2,24c34.8-14.7,77.7,8.2,95.9,51.3"/>
</svg>
