<?xml version="1.0" encoding="utf-8"?>
<!-- Generator: Adobe Illustrator 19.0.1, SVG Export Plug-In . SVG Version: 6.00 Build 0)  -->
<svg version="1.1" id="Слой_1" xmlns="http://www.w3.org/2000/svg" xmlns:xlink="http://www.w3.org/1999/xlink" x="0px" y="0px"
	 viewBox="0 0 500 500" style="enable-background:new 0 0 500 500;" xml:space="preserve">
<style type="text/css">
	.st0{fill:none;stroke:#3EB5F1;stroke-width:16;stroke-miterlimit:10;}
</style>
<g id="Слой_3">
	<g id="Слой_2">
		<path class="st0" d="M139.2,133.3c0,83,44.2,150.1,98.9,150.1"/>
		<path class="st0" d="M332.5,133.3c0,83-42.2,150.1-94.4,150.1"/>
	</g>
	<line class="st0" x1="120.1" y1="133.3" x2="351.5" y2="133.3"/>
	<line class="st0" x1="196" y1="133.3" x2="196" y2="65.1"/>
	<line class="st0" x1="278" y1="133.3" x2="278" y2="65.1"/>
	<path class="st0" d="M265,318.4h-52.3c-5.3,0-9.7-4.4-9.7-9.7V293c0-5.3,4.4-9.7,9.7-9.7H265c5.3,0,9.7,4.4,9.7,9.7v15.7
		C274.7,314.1,270.3,318.4,265,318.4z"/>
	<path class="st0" d="M239.7,320.3c0,45.2,54.8,81.8,122.5,81.8"/>
	<path class="st0" d="M361.3,401.7c26.4,0.4,47.5,15.1,47.3,32.8"/>
	<path class="st0" d="M360.9,467.5c26.4,0.4,47.9-15.2,48.1-34.8"/>
	<line class="st0" x1="367.9" y1="467.5" x2="133.5" y2="467.5"/>
</g>
</svg>
