<?xml version="1.0" encoding="utf-8"?>
<!-- Generator: Adobe Illustrator 19.0.1, SVG Export Plug-In . SVG Version: 6.00 Build 0)  -->
<svg version="1.1" id="Слой_1" xmlns="http://www.w3.org/2000/svg" xmlns:xlink="http://www.w3.org/1999/xlink" x="0px" y="0px"
	 viewBox="0 0 500 500" style="enable-background:new 0 0 500 500;" xml:space="preserve">
<style type="text/css">
	.st0{fill:none;stroke:#6CA9E0;stroke-width:16;stroke-miterlimit:10;}
</style>
<ellipse class="st0" cx="254" cy="250.7" rx="181" ry="172.5"/>
<rect x="210" y="340" class="st0" width="93" height="37"/>
<ellipse class="st0" cx="254" cy="250" rx="20" ry="19"/>
<line class="st0" x1="270.2" y1="238.9" x2="340" y2="174"/>
<line class="st0" x1="254" y1="91" x2="254" y2="120"/>
<line class="st0" x1="86.9" y1="251" x2="115.9" y2="250.5"/>
<line class="st0" x1="86.9" y1="251" x2="115.9" y2="250.5"/>
<line class="st0" x1="392.6" y1="251.2" x2="421.6" y2="250.7"/>
<line class="st0" x1="161.3" y1="347.2" x2="142" y2="368.8"/>
<line class="st0" x1="372.4" y1="137.7" x2="353.1" y2="159.3"/>
<line class="st0" x1="134.4" y1="138.9" x2="156.1" y2="158.1"/>
<line class="st0" x1="347.5" y1="347.6" x2="366.1" y2="369.9"/>
<line class="st0" x1="380.9" y1="303.4" x2="406.2" y2="317.6"/>
<line class="st0" x1="100.5" y1="189.9" x2="127.6" y2="200.1"/>
<line class="st0" x1="103.5" y1="318.5" x2="128.2" y2="303.4"/>
<line class="st0" x1="381.7" y1="202.8" x2="407.4" y2="189.3"/>
<line class="st0" x1="308.3" y1="131.3" x2="320.1" y2="104.8"/>
<line class="st0" x1="191.2" y1="104.2" x2="201.6" y2="131.3"/>
</svg>
