<?xml version="1.0" encoding="utf-8"?>
<!-- Generator: Adobe Illustrator 19.0.1, SVG Export Plug-In . SVG Version: 6.00 Build 0)  -->
<svg version="1.1" id="Слой_1" xmlns="http://www.w3.org/2000/svg" xmlns:xlink="http://www.w3.org/1999/xlink" x="0px" y="0px"
	 viewBox="0 0 500 500" style="enable-background:new 0 0 500 500;" xml:space="preserve">
<style type="text/css">
	.st0{fill:none;stroke:#6CA9E0;stroke-width:16;stroke-miterlimit:10;}
	.st1{fill:#6CA9E0;}
</style>
<path class="st0" d="M415,369H93c-6.6,0-12-5.4-12-12V146c0-6.6,5.4-12,12-12h322c6.6,0,12,5.4,12,12v211
	C427,363.6,421.6,369,415,369z"/>
<path class="st0" d="M315,332H122c-6.6,0-12-5.4-12-12V180c0-6.6,5.4-12,12-12h193c6.6,0,12,5.4,12,12v140
	C327,326.6,321.6,332,315,332z"/>
<circle class="st1" cx="376.9" cy="218.1" r="15"/>
<circle class="st1" cx="376.9" cy="279.1" r="15"/>
<line class="st0" x1="190" y1="70" x2="254" y2="134"/>
<line class="st0" x1="254" y1="134" x2="341" y2="38"/>
</svg>
