<svg id="Слой_1" xmlns="http://www.w3.org/2000/svg" viewBox="0 0 500 500">
    <style>
        .st0{fill:none;stroke:#6ca9e0;stroke-width:16;stroke-miterlimit:10}
    </style>
    <ellipse class="st0" cx="254" cy="250.7" rx="181" ry="172.5"/>
    <ellipse class="st0" cx="254" cy="252.2" rx="105" ry="100.2"/>
    <path class="st0" d="M254 82v66.5"/>
    <path class="st0" d="M86.9 251l29-.5"/>
    <path class="st0" d="M73 252.6l76-1.2"/>
    <path class="st0" d="M366.1 251.6l64.6-1"/>
    <path class="st0" d="M177.3 329.2l-44.1 49.4"/>
    <path class="st0" d="M378.2 131.2l-47.1 52.9"/>
    <path class="st0" d="M124.9 130.4l54 47.8"/>
    <path class="st0" d="M327.6 323.8l46.6 55.9"/>
    <path class="st0" d="M250 356.7v66.4"/>
    <path class="st0" d="M145.3 329.2c-42.1-29.8-47.5-94.6-11.9-144.9"/>
    <path class="st0" d="M138.7 178l6.7-7.3"/>
    <path class="st0" d="M145.3 329.2c-42.1-29.8-47.5-94.6-11.9-144.9"/>
    <path class="st0" d="M367.7 189.4c35.2 36.8 34.5 94.5-1.7 129.1"/>
    <path class="st0" d="M355.2 330.8l6.8-7.2"/>
</svg>
