<svg id="Слой_1" xmlns="http://www.w3.org/2000/svg" viewBox="0 0 500 500">
    <style>
        .st0,.st1{fill:none;stroke:#9b7948;stroke-width:16;stroke-miterlimit:10}.st1{stroke-width:8}
    </style>
    <path class="st0" d="M202.2 134.3c0-21.2 20.3-38.3 45.2-38.3"/>
    <path class="st0" d="M299.4 134.3c0-21.2-23.8-38.3-53.4-38.3"/>
    <path class="st0" d="M202.2 134.3V200"/>
    <path class="st0" d="M299.4 134.3V200"/>
    <path class="st0" d="M202.2 200c0 15.2 7.4 27.4 16.4 27.4"/>
    <path class="st0" d="M299.4 200c0 15.2-8.2 27.4-18.5 27.4"/>
    <path class="st1" d="M213.2 230.1v28.8"/>
    <path class="st1" d="M286.4 228.8v28.7"/>
    <path class="st0" d="M100.6 342.2c.7-47 53.5-84.1 118.3-83.3"/>
    <path class="st0" d="M394.6 342.2c.7-47-50.1-85.6-113.7-86.5"/>
    <path class="st0" d="M103.8 337.6v22.2"/>
    <path class="st0" d="M394.6 341.9v22.3"/>
    <path class="st0" d="M210.4 346.5h76V404h-76z"/>
    <path class="st0" d="M218.6 346.5c0-25.5 12.2-46 27.4-46"/>
    <path class="st0" d="M275.9 346.5c0-25.5-14.1-46-31.5-46"/>
</svg>
