<svg id="Слой_1" xmlns="http://www.w3.org/2000/svg" viewBox="0 0 500 500">
    <style>
        .st0,.st1,.st2,.st3{fill:none;stroke:#6ca9e0;stroke-width:16;stroke-miterlimit:10}.st1,.st2,.st3{stroke-width:12}.st2,.st3{stroke:#6ea4d5;stroke-width:7}.st3{stroke-width:16}
    </style>
    <path class="st0" d="M349 489H147c-6.6 0-12-5.4-12-12V112c0-6.6 5.4-12 12-12h202c6.6 0 12 5.4 12 12v365c0 6.6-5.4 12-12 12z"/>
    <path class="st0" d="M135 141h226"/>
    <path class="st0" d="M194 429.5l164 1"/>
    <path class="st0" d="M139 429.4l44 .2"/>
    <circle class="st1" cx="248" cy="459.7" r="12.7"/>
    <path class="st2" d="M235.3 120h40"/>
    <path class="st2" d="M221.3 120h10"/>
    <path class="st3" d="M351 77.9c11.3-4.4 24.8 3.1 30.2 16.8"/>
    <path class="st3" d="M341.8 52c23.3-9.3 51.1 5.5 62.2 33.2"/>
    <path class="st3" d="M331.2 24c34.8-14.7 77.7 8.2 95.9 51.3"/>
</svg>
