<svg id="Слой_1" xmlns="http://www.w3.org/2000/svg" viewBox="0 0 500 500">
    <style>
        .st0{fill:none;stroke:#3eb5f1;stroke-width:16;stroke-miterlimit:10}
    </style>
    <g id="Слой_3">
        <g id="Слой_2">
            <path class="st0" d="M139.2 133.3c0 83 44.2 150.1 98.9 150.1"/>
            <path class="st0" d="M332.5 133.3c0 83-42.2 150.1-94.4 150.1"/>
        </g>
        <path class="st0" d="M120.1 133.3h231.4"/>
        <path class="st0" d="M196 133.3V65.1"/>
        <path class="st0" d="M278 133.3V65.1"/>
        <path class="st0" d="M265 318.4h-52.3c-5.3 0-9.7-4.4-9.7-9.7V293c0-5.3 4.4-9.7 9.7-9.7H265c5.3 0 9.7 4.4 9.7 9.7v15.7c0 5.4-4.4 9.7-9.7 9.7z"/>
        <path class="st0" d="M239.7 320.3c0 45.2 54.8 81.8 122.5 81.8"/>
        <path class="st0" d="M361.3 401.7c26.4.4 47.5 15.1 47.3 32.8"/>
        <path class="st0" d="M360.9 467.5c26.4.4 47.9-15.2 48.1-34.8"/>
        <path class="st0" d="M367.9 467.5H133.5"/>
    </g>
</svg>
