<svg id="Слой_1" xmlns="http://www.w3.org/2000/svg" viewBox="0 0 500 500">
    <style>
        .st0,.st1{stroke:#5797d3;stroke-width:16;stroke-miterlimit:10}.st1{stroke-width:12}
    </style>
    <path class="st0" d="M205.3 468h-20.6c-1.8 0-3.3-1.3-3.6-3l-5.6-36c-5.9-1-11.7-2.5-17.3-4.4L134.7 453c-1.1 1.3-3.1 1.7-4.6.8l-17.9-10c-1.5-.9-2.2-2.7-1.6-4.3l13.8-33.9c-4.6-3.7-8.8-7.8-12.6-12.2l-35.1 13.3c-1.7.6-3.5 0-4.4-1.5L62 388c-.9-1.5-.5-3.4.9-4.5l29.4-22.6c-2-5.4-3.5-11-4.6-16.7l-37.2-5.4c-1.8-.3-3.1-1.7-3.1-3.4v-20c0-1.7 1.3-3.2 3.1-3.4l37.2-5.4c1.1-5.7 2.6-11.3 4.6-16.7L62.9 267c-1.4-1.1-1.8-3-.9-4.5l10.3-17.3c.9-1.5 2.8-2.1 4.4-1.5l35 13.3c3.9-4.4 8.1-8.5 12.6-12.2L110.7 211c-.7-1.6 0-3.4 1.5-4.3l17.9-10c1.5-.9 3.5-.5 4.6.8l23.4 28.5c5.6-1.9 11.4-3.4 17.3-4.5l5.6-36c.3-1.7 1.8-3 3.6-3h20.6c1.8 0 3.3 1.3 3.6 3l5.6 36c5.9 1 11.7 2.5 17.3 4.5l23.4-28.5c1.1-1.4 3.1-1.7 4.6-.8l17.9 10c1.5.9 2.2 2.7 1.6 4.3l-13.7 33.9c4.6 3.8 8.9 7.9 12.7 12.2l35-13.3c1.7-.6 3.5 0 4.4 1.5l10.3 17.3c.9 1.5.5 3.4-.9 4.5l-29.4 22.7c2 5.5 3.6 11.1 4.6 16.7l37.2 5.4c1.8.3 3.1 1.7 3.1 3.4v20c0 1.7-1.3 3.2-3.1 3.4l-37.2 5.4c-1.1 5.6-2.6 11.2-4.6 16.7l29.4 22.7c1.4 1.1 1.8 3 .9 4.5l-10.3 17.3c-.9 1.5-2.8 2.1-4.4 1.5l-35-13.3c-3.8 4.3-8 8.4-12.7 12.2l13.8 33.9c.6 1.6 0 3.4-1.6 4.3l-17.9 10c-1.5.9-3.5.5-4.6-.8l-23.4-28.4c-5.6 2-11.4 3.4-17.3 4.4l-5.6 36c-.3 1.6-1.8 2.9-3.6 2.9zm-17.5-7h14.4l5.5-35.5c.2-1.5 1.5-2.7 3-2.9 7.1-1 14.2-2.8 20.9-5.4 1.5-.5 3.1-.1 4.1 1.1l23.1 28.1 12.5-7-13.6-33.5c-.6-1.4-.1-3 1.1-4 5.8-4.5 10.9-9.5 15.3-14.8 1-1.2 2.7-1.6 4.1-1.1l34.6 13.1L320 387l-29-22.4c-1.2-.9-1.7-2.6-1.1-4 2.6-6.6 4.5-13.5 5.6-20.2.2-1.5 1.5-2.7 3-2.9l36.7-5.3v-14l-36.7-5.4c-1.6-.2-2.8-1.4-3-2.9-1.1-6.7-3-13.6-5.6-20.2-.6-1.4-.1-3 1.1-4l29-22.4-7.2-12.1-34.6 13.2c-1.5.6-3.1.1-4.1-1.1-4.4-5.4-9.6-10.3-15.3-14.8-1.2-1-1.7-2.6-1.1-4l13.6-33.5-12.5-7-23.1 28.1c-1 1.2-2.7 1.6-4.1 1.1-6.7-2.5-13.7-4.3-20.9-5.4-1.6-.2-2.8-1.4-3-2.9l-5.5-35.5h-14.4l-5.5 35.5c-.2 1.5-1.5 2.7-3 2.9-7.2 1.1-14.2 2.9-20.9 5.4-1.4.6-3.1.1-4.1-1.1L131 204.2l-12.5 7 13.6 33.5c.6 1.4.1 3.1-1.1 4-5.6 4.3-10.7 9.3-15.3 14.8-1 1.2-2.7 1.6-4.1 1.1L77 251.4l-7.2 12.1 29.1 22.4c1.2 1 1.7 2.6 1.1 4-2.6 6.4-4.5 13.2-5.6 20.2-.2 1.5-1.5 2.7-3 2.9l-36.7 5.3v14l36.7 5.3c1.6.2 2.8 1.4 3 2.9 1.2 7 3 13.8 5.6 20.2.6 1.4.1 3-1.1 4l-29.1 22.4 7.2 12.1 34.6-13.1c1.5-.6 3.1-.1 4.1 1.1 4.5 5.4 9.6 10.4 15.3 14.8 1.2 1 1.7 2.6 1.1 4l-13.6 33.5 12.5 7 23.2-28.1c1-1.2 2.6-1.6 4.1-1.1 6.7 2.5 13.8 4.3 20.9 5.4 1.6.2 2.8 1.4 3 2.9l5.6 35.4zm7.2-81.1c-31.1 0-56.4-24.5-56.4-54.6s25.3-54.6 56.4-54.6 56.5 24.5 56.5 54.6c-.1 30.1-25.4 54.6-56.5 54.6zm0-102.2c-27.1 0-49.2 21.4-49.2 47.6 0 26.3 22.1 47.7 49.2 47.7 27.2 0 49.3-21.4 49.3-47.7-.1-26.3-22.2-47.6-49.3-47.6z"/>
    <g>
        <path class="st1" d="M370 220.1h-12.9c-1.1 0-2.1-.8-2.3-1.8l-3.5-21.9c-3.7-.6-7.3-1.5-10.8-2.7L325.8 211c-.7.8-1.9 1-2.9.5l-11.2-6.1c-.9-.5-1.4-1.6-1-2.6l8.6-20.7c-2.9-2.3-5.5-4.8-7.9-7.4l-22 8.1c-1.1.4-2.2 0-2.8-.9l-6.5-10.5c-.6-.9-.3-2.1.6-2.7l18.4-13.8c-1.3-3.3-2.2-6.7-2.9-10.2l-23.3-3.3c-1.1-.2-1.9-1-1.9-2.1v-12.2c0-1 .8-1.9 1.9-2.1l23.3-3.3c.7-3.5 1.6-6.9 2.9-10.2l-18.4-14c-.9-.7-1.1-1.8-.6-2.7l6.5-10.5c.6-.9 1.8-1.3 2.8-.9l21.9 8.1c2.4-2.7 5.1-5.2 7.9-7.4l-8.5-20.6c-.4-1 0-2.1.9-2.6l11.2-6.1c.9-.5 2.2-.3 2.9.5l14.7 17.4c3.5-1.2 7.1-2.1 10.8-2.7l3.5-21.9c.2-1 1.1-1.8 2.3-1.8h12.9c1.1 0 2.1.8 2.3 1.8l3.5 21.9c3.7.6 7.3 1.5 10.8 2.7l14.7-17.4c.7-.9 1.9-1 2.9-.5l11.2 6.1c.9.5 1.4 1.6 1 2.6l-8.6 20.7c2.9 2.3 5.6 4.8 8 7.4l21.9-8.1c1.1-.4 2.2 0 2.8.9l6.5 10.5c.6.9.3 2.1-.6 2.7l-18.4 13.8c1.3 3.4 2.3 6.8 2.9 10.2L454 125c1.1.2 1.9 1 1.9 2.1v12.2c0 1-.8 1.9-1.9 2.1l-23.3 3.3c-.7 3.4-1.6 6.8-2.9 10.2l18.4 13.8c.9.7 1.1 1.8.6 2.7l-6.5 10.5c-.6.9-1.8 1.3-2.8.9l-21.9-8.1c-2.4 2.6-5 5.1-8 7.4l8.6 20.7c.4 1 0 2.1-1 2.6l-11.2 6.1c-.9.5-2.2.3-2.9-.5l-14.7-17.3c-3.5 1.2-7.1 2.1-10.8 2.7l-3.5 21.9c-.1 1-1 1.8-2.1 1.8zm-11-4.3h9l3.4-21.6c.1-.9.9-1.6 1.9-1.8 4.4-.6 8.9-1.7 13.1-3.3.9-.3 1.9-.1 2.6.7l14.5 17.1 7.8-4.3-8.5-20.4c-.4-.9-.1-1.8.7-2.4 3.6-2.7 6.8-5.8 9.6-9 .6-.7 1.7-1 2.6-.7l21.7 8 4.5-7.4-18.2-13.6c-.8-.5-1.1-1.6-.7-2.4 1.6-4 2.8-8.2 3.5-12.3.1-.9.9-1.6 1.9-1.8l23-3.2v-8.5l-23-3.3c-1-.1-1.8-.9-1.9-1.8-.7-4.1-1.9-8.3-3.5-12.3-.4-.9-.1-1.8.7-2.4l18.2-13.6-4.5-7.4-21.7 8c-.9.4-1.9.1-2.6-.7-2.8-3.3-6-6.3-9.6-9-.8-.6-1.1-1.6-.7-2.4l8.5-20.4-7.8-4.3-14.5 17c-.6.7-1.7 1-2.6.7-4.2-1.5-8.6-2.6-13.1-3.3-1-.1-1.8-.9-1.9-1.8L368 50.3h-9l-3.4 21.6c-.1.9-.9 1.6-1.9 1.8-4.5.7-8.9 1.8-13.1 3.3-.9.4-1.9.1-2.6-.7l-14.6-17-7.8 4.3 8.5 20.4c.4.9.1 1.9-.7 2.4-3.5 2.6-6.7 5.7-9.6 9-.6.7-1.7 1-2.6.7l-21.7-8-4.5 7.4 18.2 13.6c.8.6 1.1 1.6.7 2.4-1.6 3.9-2.8 8-3.5 12.3-.1.9-.9 1.6-1.9 1.8l-23 3.2v8.5l23 3.2c1 .1 1.8.9 1.9 1.8.8 4.3 1.9 8.4 3.5 12.3.4.9.1 1.8-.7 2.4L285 170.6l4.5 7.4 21.7-8c.9-.4 1.9-.1 2.6.7 2.8 3.3 6 6.3 9.6 9 .8.6 1.1 1.6.7 2.4l-8.5 20.4 7.8 4.3 14.5-17.1c.6-.7 1.6-1 2.6-.7 4.2 1.5 8.6 2.6 13.1 3.3 1 .1 1.8.9 1.9 1.8l3.5 21.7zm4.5-49.4c-19.5 0-35.3-14.9-35.3-33.3s15.9-33.3 35.3-33.3 35.4 14.9 35.4 33.3-15.9 33.3-35.4 33.3zm0-62.3c-17 0-30.8 13-30.8 29s13.8 29.1 30.8 29.1 30.9-13 30.9-29.1c-.1-16-13.9-29-30.9-29z"/>
    </g>
</svg>
