<svg id="Слой_1" xmlns="http://www.w3.org/2000/svg" viewBox="0 0 500 500">
    <style>
        .st0{fill:none;stroke:#6ca9e0;stroke-width:16;stroke-miterlimit:10}
    </style>
    <ellipse class="st0" cx="254" cy="250.7" rx="181" ry="172.5"/>
    <path class="st0" d="M210 340h93v37h-93z"/>
    <ellipse class="st0" cx="254" cy="250" rx="20" ry="19"/>
    <path class="st0" d="M270.2 238.9L340 174"/>
    <path class="st0" d="M254 91v29"/>
    <path class="st0" d="M86.9 251l29-.5"/>
    <path class="st0" d="M86.9 251l29-.5"/>
    <path class="st0" d="M392.6 251.2l29-.5"/>
    <path class="st0" d="M161.3 347.2L142 368.8"/>
    <path class="st0" d="M372.4 137.7l-19.3 21.6"/>
    <path class="st0" d="M134.4 138.9l21.7 19.2"/>
    <path class="st0" d="M347.5 347.6l18.6 22.3"/>
    <path class="st0" d="M380.9 303.4l25.3 14.2"/>
    <path class="st0" d="M100.5 189.9l27.1 10.2"/>
    <path class="st0" d="M103.5 318.5l24.7-15.1"/>
    <path class="st0" d="M381.7 202.8l25.7-13.5"/>
    <path class="st0" d="M308.3 131.3l11.8-26.5"/>
    <path class="st0" d="M191.2 104.2l10.4 27.1"/>
</svg>
