<?xml version="1.0" encoding="UTF-8"?><!DOCTYPE svg PUBLIC "-//W3C//DTD SVG 1.1//EN" "http://www.w3.org/Graphics/SVG/1.1/DTD/svg11.dtd"><svg xmlns="http://www.w3.org/2000/svg"><symbol id="icon-computer" viewBox="0 0 500 500">
    <style type="text/css">
        .st0{fill:none;stroke:#6ca9e0;stroke-width:16;stroke-miterlimit:10}.st1{fill:#fff}
    </style>
    <path class="st0" d="M415 383H92c-6.6 0-12-5.4-12-12V180c0-6.6 5.4-12 12-12h323c6.6 0 12 5.4 12 12v191c0 6.6-5.4 12-12 12z"/>
    <path class="st1" d="M192 141h121v47H192z"/>
    <path class="st0" d="M253.5 388v55"/>
    <path class="st0" d="M195 444h115"/>
    <path class="st0" d="M282 257h-58c-6.6 0-12-5.4-12-12V75c0-6.6 5.4-12 12-12h58c6.6 0 12 5.4 12 12v170c0 6.6-5.4 12-12 12z"/>
    <path class="st0" d="M210 106h82"/>
    <path class="st0" d="M253 106l.5 144"/>
    <path class="st0" d="M219.8 256.5l66.3 1.3-31.6 58.3z"/>
</symbol></svg>