<?xml version="1.0" encoding="UTF-8"?><!DOCTYPE svg PUBLIC "-//W3C//DTD SVG 1.1//EN" "http://www.w3.org/Graphics/SVG/1.1/DTD/svg11.dtd"><svg xmlns="http://www.w3.org/2000/svg"><symbol id="icon-call24" viewBox="0 0 438.146 438.146">
    <path d="M276.4 275.873c.8 2.4 2 4.4 3.2 6 1.6 1.6 3.2 2.8 5.2 4 2 .8 4 1.2 6.4 1.2 2.4 0 4.4-.4 6.4-1.2 2-.8 3.6-2 5.2-3.6s2.8-3.6 3.2-6c.8-2 .8-4.4.8-7.2v-10c2.4 0 4.4-.4 6-.8 2.4-.4 4-1.2 6-2.4 3.6-2.4 5.6-6.4 5.6-11.6 0-2.8-.4-5.2-1.6-7.2-1.2-2.4-3.2-4.4-5.6-5.2-1.6-.8-3.6-1.2-6-1.6-1.6-.4-2.8-.4-4.8-.4v-58.8c0-6-1.6-11.2-4.4-14.4-3.2-3.6-7.6-5.6-13.6-5.6-2 0-4 .4-5.6 1.2-1.6.8-3.2 1.6-4.8 3.2-1.2.8-2.4 2.4-3.6 4-1.2 1.6-2.8 3.2-4 5.2l-42.8 58.4c-.8 1.2-1.2 1.6-1.6 2 0 .4-.4.8-1.2 1.6-.4.8-.8 1.2-1.6 2-.4.8-.8 1.2-1.2 2l-1.2 2.4c-.8.8-1.2 1.6-1.2 2-.4.8-.4 1.6-.8 2.4 0 .8-.4 1.6-.4 2.4 0 2.8.4 5.2 1.2 7.6.8 2.4 2.4 4.4 4.4 6.4 3.6 3.2 8.8 5.2 15.6 5.2h36v9.6c0 2.4.4 4.8.8 7.2zm-19.2-46.4l18.8-25.6v25.6h-18.8z"/>
    <path d="M170.4 200.673c-.4.8-1.2 2.4-2.4 3.6-.8 1.6-2 2.8-3.6 4.4-1.2 1.6-2.8 2.8-4.4 4.4-1.6 1.6-3.6 2.8-5.6 4.4-1.2.8-3.2 2.4-5.6 4.4-2 2-4.8 4-7.6 6.8s-6 5.6-9.6 9.2c-3.2 3.2-6.8 6.8-10.4 10.8-1.2 1.2-2.4 2.8-3.2 4-.8 1.6-2 3.2-2.8 5.2-.8 2-1.6 3.6-2 5.2-.4 2-.8 3.6-.8 4.8 0 2.4.4 4.4 1.2 6.4s2 4 4 5.6c1.6 1.6 4 3.2 6.4 4 2.4.8 4.8 1.2 7.2 1.2H192c2.4 0 4.8-.4 6.4-1.2 2.4-.8 4-2 5.6-3.6 1.2-1.6 2.4-3.2 3.2-4.8.8-2 1.2-3.6 1.2-5.6 0-2.4-.4-4.4-1.2-6.4s-2.4-3.6-4-5.2c-1.6-1.2-3.6-2.4-6-3.2-2-.4-4.4-.8-7.2-.8h-31.2l2.4-2.4c2.8-2.8 6.4-5.6 10.4-8.8 3.6-3.2 7.2-6 10.4-8.8s5.6-4.8 7.6-6.4c2-1.6 4-4 6-6.4 2-2.4 3.6-5.2 5.6-8 2-3.2 3.6-6.8 4.4-10.4.8-3.6 1.6-7.2 1.6-11.2 0-2.4-.4-4.8-.8-7.6-.4-2.4-1.2-4.8-2-7.2-.8-2.4-2-4.4-3.6-6.8-1.2-2-2.8-4-4.4-6-1.6-1.6-3.6-3.6-5.6-4.8-2-1.6-4-2.8-6.4-3.6-3.2-1.6-7.2-2.4-11.2-3.2-4-.8-8.4-1.2-12.8-1.2-3.6 0-7.2.4-10.8.8-3.6.4-6.8 1.6-9.6 2.8-2.8 1.2-5.6 2.4-8 4-2.4 1.6-4.8 3.2-6.8 5.2s-3.6 4-5.2 6c-1.6 2.4-2.8 4.4-3.6 6.8-.8 2.4-1.6 4.8-2.4 6.8-.4 2.4-.8 4.8-.8 7.2 0 2.4.4 4.4 1.2 6 .8 2 2 3.6 3.2 5.2 1.6 1.6 3.2 2.4 4.8 3.2 2 .8 3.6 1.2 6 1.2s4.4-.4 6.4-1.2 3.6-2 5.2-4c1.2-1.2 2-2.8 2.8-4.8.8-1.6 1.6-3.6 2.4-5.6.8-1.6 1.2-3.2 1.6-4 1.6-2.4 3.2-4 5.2-5.2s4.4-1.6 6.8-1.6c1.2 0 2.4 0 3.6.4 1.2.4 2 .8 3.2 1.2 1.2.4 2 1.2 2.8 2 .8.8 1.6 1.6 2 2.4.4.8.8 2 1.2 3.2.4 1.2.4 2.4.4 3.6 0 1.2 0 2.4-.4 3.6-.4 1.2-.8 2.8-1.2 4z"/>
    <path d="M14.8 233.873c8 0 14.8-6.4 14.8-14.8 0-51.6 20.8-98 54.8-132 33.6-33.6 80.4-54.8 132-54.8 38 0 74 11.6 104 31.6 20 13.6 37.2 30.8 50.8 51.2l-16.8-6.4c-7.6-2.8-16 .8-18.8 8.4-2.8 7.6.8 16 8.4 18.8l52.8 20.8c3.6 1.6 7.6 1.6 11.2 0 4-1.6 6.8-4.8 8.4-8.8l20.8-52.8c2.8-7.6-.8-16-8.4-18.8-7.6-2.8-16 .8-18.8 8.4l-8.8 22.8c-16.4-27.2-38.4-50-64.4-67.2-34.8-23.6-76.4-36.8-120.4-36.8-59.6 0-113.6 24-152.4 63.2-39.6 38.8-64 92.8-64 152.4 0 8 6.8 14.8 14.8 14.8z"/>
    <path d="M422.8 204.273c-8 0-14.8 6.4-14.8 14.8 0 51.6-20.8 98-54.8 132-33.6 33.6-80.4 54.8-132 54.8-38 0-74-11.6-104-31.6-20-13.6-37.2-30.8-50.8-51.2l16.8 6.4c7.6 2.8 16-.8 18.8-8.4 2.8-7.6-.8-16-8.4-18.8l-52.8-20.8c-3.6-1.6-7.6-1.6-11.2 0-4 1.6-6.8 4.8-8.4 8.8l-20 52.8c-2.8 7.6.8 16 8.4 18.8 7.6 2.8 16-.8 18.8-8.4l8.8-22.8c16.4 27.2 38.4 50 64.4 67.2 34.8 23.6 76.4 36.8 120.4 36.8 59.6 0 113.6-24 152.4-63.2 39.2-39.2 63.2-92.8 63.2-152.4 0-8-6.8-14.8-14.8-14.8z"/>
</symbol><symbol id="icon-facebook" viewBox="0 0 512 512">
    <path d="M448 0H64C28.704 0 0 28.704 0 64v384c0 35.296 28.704 64 64 64h192V336h-64v-80h64v-64c0-53.024 42.976-96 96-96h64v80h-32c-17.664 0-32-1.664-32 16v64h80l-32 80h-48v176h96c35.296 0 64-28.704 64-64V64c0-35.296-28.704-64-64-64z"/>
</symbol><symbol id="icon-infinity" viewBox="0 0 100 100">
    <path d="M79.514 28C69.118 28 57.723 33.792 50 42.577 42.275 33.792 30.881 28 20.486 28 10.582 28 0 33.779 0 50s10.582 21.999 20.486 22C30.883 72 42.275 66.209 50 57.426 57.723 66.209 69.117 72 79.512 72 89.418 72 100 66.221 100 50S89.418 28 79.514 28zM20.486 63.201C12.926 63.201 9.09 58.76 9.09 50c0-8.757 3.836-13.2 11.396-13.2 8.361 0 18.07 5.427 24.031 13.2-5.96 7.773-15.667 13.201-24.031 13.201zm59.026 0c-8.361 0-18.07-5.428-24.029-13.201 5.959-7.773 15.67-13.2 24.031-13.2 7.562 0 11.396 4.442 11.396 13.2-.002 8.76-3.836 13.201-11.398 13.201z"/>
</symbol><symbol id="icon-instagram" viewBox="0 0 512 512">
    <path d="M376 91H136c-24.813 0-45 20.188-45 45v240c0 24.813 20.188 45 45 45h240c24.813 0 45-20.188 45-45V136c0-24.813-20.188-45-45-45zM256 361c-57.89 0-105-47.11-105-105s47.11-105 105-105 105 47.11 105 105-47.11 105-105 105zm105-180c-16.54 0-30-13.46-30-30s13.46-30 30-30 30 13.46 30 30-13.46 30-30 30zm0 0"/>
    <path d="M256 181c-41.352 0-75 33.648-75 75s33.648 75 75 75 75-33.648 75-75-33.648-75-75-75zm0 0"/>
    <path d="M436 0H76C34.648 0 0 34.648 0 76v360c0 41.352 34.648 76 76 76h360c41.352 0 76-34.648 76-76V76c0-41.352-34.648-76-76-76zm15 376c0 41.352-33.648 75-75 75H136c-41.352 0-75-33.648-75-75V136c0-41.352 33.648-75 75-75h240c41.352 0 75 33.648 75 75zm0 0"/>
</symbol><symbol id="icon-next" viewBox="0 0 307.046 307.046">
    <path d="M239.087 142.427L101.259 4.597c-6.133-6.129-16.073-6.129-22.203 0L67.955 15.698c-6.129 6.133-6.129 16.076 0 22.201l115.621 115.626-115.621 115.61c-6.129 6.136-6.129 16.086 0 22.209l11.101 11.101c6.13 6.136 16.07 6.136 22.203 0l137.828-137.831c6.135-6.127 6.135-16.058 0-22.187z"/>
</symbol><symbol id="icon-phone" viewBox="0 0 348.077 348.077">
    <path d="M340.273 275.083l-53.755-53.761c-10.707-10.664-28.438-10.34-39.518.744l-27.082 27.076a792.327 792.327 0 0 1-5.344-2.973c-17.102-9.476-40.509-22.464-65.14-47.113-24.704-24.701-37.704-48.144-47.209-65.257-1.003-1.813-1.964-3.561-2.913-5.221l18.176-18.149 8.936-8.947c11.097-11.1 11.403-28.826.721-39.521L73.39 8.194c-10.682-10.68-28.421-10.356-39.518.744l-15.15 15.237.414.411c-5.08 6.482-9.325 13.958-12.484 22.02C3.74 54.28 1.927 61.603 1.098 68.941-6 127.785 20.89 181.564 93.866 254.541c100.875 100.868 182.167 93.248 185.674 92.876 7.638-.913 14.958-2.738 22.397-5.627 7.992-3.122 15.463-7.361 21.941-12.43l.331.294 15.348-15.029c11.074-11.098 11.393-28.83.716-39.542z"/>
</symbol><symbol id="icon-prev" viewBox="0 0 181 308">
    <title>
        owl-prev
    </title>
    <path d="M4.913 165.573l137.828 137.83c6.133 6.129 16.073 6.129 22.203 0l11.101-11.101c6.129-6.133 6.129-16.076 0-22.201L60.424 154.475l115.621-115.61c6.129-6.136 6.129-16.086 0-22.209L164.944 5.555c-6.13-6.136-16.07-6.136-22.203 0L4.913 143.386c-6.135 6.127-6.135 16.058 0 22.187z" fill-rule="evenodd"/>
</symbol><symbol id="icon-recall" viewBox="0 0 438.146 438.146">
    <path d="M184 165.073l-17.2-38c-16.4-36.8-60.8 21.6-56.8 49.2 9.2 67.2 127.6 176 193.2 140 14.8-8 34.4-36.8 19.6-45.6l-38-20.4c-12.8-6.8-13.2-2.4-26.4 12-3.2 3.6-9.2 12.4-16.4 10.8-14.8-3.6-42.8-25.6-51.6-35.2-4.4-4.8-22.8-27.2-22.8-34.4-.4-12 24-17.2 16.4-38.4z"/>
    <path d="M14.8 233.873c8 0 14.8-6.4 14.8-14.8 0-51.6 20.8-98 54.8-132 33.6-33.6 80.4-54.8 132-54.8 38 0 74 11.6 104 31.6 20 13.6 37.2 30.8 50.8 51.2l-16.8-6.4c-7.6-2.8-16 .8-18.8 8.4-2.8 7.6.8 16 8.4 18.8l52.8 20.8c3.6 1.6 7.6 1.6 11.2 0 4-1.6 6.8-4.8 8.4-8.8l20.8-52.8c2.8-7.6-.8-16-8.4-18.8-7.6-2.8-16 .8-18.8 8.4l-8.8 22.8c-16.4-27.2-38.4-50-64.4-67.2-34.8-23.6-76.4-36.8-120.4-36.8-59.6 0-113.6 24-152.4 63.2-39.6 38.8-64 92.8-64 152.4 0 8 6.8 14.8 14.8 14.8z"/>
    <path d="M422.8 204.273c-8 0-14.8 6.4-14.8 14.8 0 51.6-20.8 98-54.8 132-33.6 33.6-80.4 54.8-132 54.8-38 0-74-11.6-104-31.6-20-13.6-37.2-30.8-50.8-51.2l16.8 6.4c7.6 2.8 16-.8 18.8-8.4 2.8-7.6-.8-16-8.4-18.8l-52.8-20.8c-3.6-1.6-7.6-1.6-11.2 0-4 1.6-6.8 4.8-8.4 8.8l-20 52.8c-2.8 7.6.8 16 8.4 18.8 7.6 2.8 16-.8 18.8-8.4l8.8-22.8c16.4 27.2 38.4 50 64.4 67.2 34.8 23.6 76.4 36.8 120.4 36.8 59.6 0 113.6-24 152.4-63.2 39.2-39.2 63.2-92.8 63.2-152.4 0-8-6.8-14.8-14.8-14.8z"/>
</symbol></svg>